#N canvas 0 58 1366 709 10;
#X obj 577 34 * 1.1;
#X msg 592 182 connect 127.0.0.1 9997;
#X obj 592 161 loadbang;
#X msg 578 -128 listen 57120;
#X obj 578 -149 loadbang;
#X obj 578 -107 netreceive -u -b;
#X obj 578 -86 oscparse;
#X obj 578 -65 list trim;
#X obj 592 203 netsend -u -b;
#X obj 577 76 list prepend send;
#X obj 577 97 list trim;
#X text 791 69 might be missing a symbol;
#X obj 235 -133 loadbang;
#X obj 235 -91 netreceive -u -b;
#X obj 235 -70 oscparse;
#X obj 235 -49 list trim;
#X msg 235 -112 listen 9997;
#X obj 201 227 loadbang;
#X obj 136 282 netsend -u -b;
#X obj 121 155 list prepend send;
#X obj 121 176 list trim;
#X floatatom 122 94 5 0 0 0 - - -, f 5;
#X msg 182 258 connect 127.0.0.1 57120;
#X obj 210 196 bng 15 250 50 0 empty empty empty 17 7 0 10 -262144
-1 -1;
#X obj 764 -123 bng 15 250 50 0 empty empty empty 17 7 0 10 -262144
-1 -1;
#X obj 194 -141 bng 15 250 50 0 empty empty empty 17 7 0 10 -262144
-1 -1;
#X obj 103 -44 vsl 15 128 0 127 0 0 empty empty empty 0 -9 0 10 -262144
-1 -1 6900 1;
#X obj 714 17 print RECV;
#X obj 583 -16 route x;
#X obj 475 2 print Route1;
#X obj 234 -27 route modified;
#X floatatom 445 105 5 0 0 0 - - -, f 5;
#X obj 308 40 route x;
#X obj 577 55 oscformat /modified/x;
#X floatatom 521 45 5 0 0 0 - - -, f 5;
#X obj 300 140;
#X obj 121 134 oscformat /y/x;
#X obj 577 -39 route y;
#X connect 0 0 33 0;
#X connect 1 0 8 0;
#X connect 2 0 1 0;
#X connect 3 0 5 0;
#X connect 4 0 3 0;
#X connect 5 0 6 0;
#X connect 6 0 7 0;
#X connect 7 0 27 0;
#X connect 7 0 37 0;
#X connect 9 0 10 0;
#X connect 10 0 8 0;
#X connect 12 0 16 0;
#X connect 13 0 14 0;
#X connect 14 0 15 0;
#X connect 15 0 30 0;
#X connect 16 0 13 0;
#X connect 17 0 22 0;
#X connect 19 0 20 0;
#X connect 20 0 18 0;
#X connect 21 0 36 0;
#X connect 22 0 18 0;
#X connect 23 0 22 0;
#X connect 24 0 3 0;
#X connect 24 0 1 0;
#X connect 25 0 16 0;
#X connect 26 0 21 0;
#X connect 28 0 0 0;
#X connect 28 0 34 0;
#X connect 30 0 32 0;
#X connect 32 0 31 0;
#X connect 33 0 9 0;
#X connect 36 0 19 0;
#X connect 37 0 28 0;
#X connect 37 0 29 0;
