#N canvas 1 58 1353 708 10;
#X obj 108 201 * 1.1;
#X msg 123 349 connect 127.0.0.1 9997;
#X obj 123 328 loadbang;
#X msg 109 39 listen 57120;
#X obj 109 18 loadbang;
#X obj 109 60 netreceive -u -b;
#X obj 109 81 oscparse;
#X obj 109 102 list trim;
#X obj 123 370 netsend -u -b;
#X obj 108 243 list prepend send;
#X obj 108 264 list trim;
#X text 322 236 might be missing a symbol;
#X obj 295 44 bng 15 250 50 0 empty empty empty 17 7 0 10 -262144 -1
-1;
#X obj 245 184 print RECV;
#X obj 114 151 route x;
#X obj 6 169 print Route1;
#X obj 108 222 oscformat /modified/x;
#X floatatom 52 212 5 0 0 0 - - -, f 5;
#X obj 108 128 route y;
#X connect 0 0 16 0;
#X connect 1 0 8 0;
#X connect 2 0 1 0;
#X connect 3 0 5 0;
#X connect 4 0 3 0;
#X connect 5 0 6 0;
#X connect 6 0 7 0;
#X connect 7 0 13 0;
#X connect 7 0 18 0;
#X connect 9 0 10 0;
#X connect 10 0 8 0;
#X connect 12 0 3 0;
#X connect 12 0 1 0;
#X connect 14 0 0 0;
#X connect 14 0 17 0;
#X connect 16 0 9 0;
#X connect 18 0 14 0;
#X connect 18 0 15 0;
