#N canvas 754 143 724 469 10;
#X declare -lib mrpeach;
#X obj 247 -153 import mrpeach;
#X obj 247 -123 udpreceive 57120;
#X obj 247 -96 unpackOSC;
#X floatatom 304 7 5 0 0 0 - - -;
#X obj 247 -68 routeOSC /1/x;
#X obj 304 30 * 1.1;
#X obj 247 120 packOSC;
#X obj 247 202 udpsend;
#X msg 261 180 connect 127.0.0.1 9997;
#X obj 261 159 loadbang;
#X obj 247 55 pack s f;
#X symbolatom 247 -13 20 0 0 0 - - -;
#X obj 261 140 bng 15 250 50 0 empty empty empty 17 7 0 10 -262144
-1 -1;
#X obj 247 -40 unpack s f;
#X msg 247 88 sendtyped /modified/x/ sf \$1 \$2;
#X connect 1 0 2 0;
#X connect 2 0 4 0;
#X connect 3 0 5 0;
#X connect 4 0 13 0;
#X connect 5 0 10 1;
#X connect 6 0 7 0;
#X connect 8 0 7 0;
#X connect 9 0 8 0;
#X connect 10 0 14 0;
#X connect 11 0 10 0;
#X connect 12 0 9 0;
#X connect 13 0 11 0;
#X connect 13 1 3 0;
#X connect 14 0 6 0;
