#N canvas 248 75 407 691 10;
#X msg 5 408 connect 127.0.0.1 9997;
#X obj 42 377 loadbang;
#X msg 11 45 listen 57120;
#X obj 11 24 loadbang;
#X obj 11 66 netreceive -u -b;
#X obj 11 87 oscparse;
#X obj 11 108 list trim;
#X obj 18 462 netsend -u -b;
#X obj 9 330 list prepend send;
#X obj 9 351 list trim;
#X obj 3 7 bng 15 250 50 0 empty empty empty 17 7 0 10 -262144 -1 -1
;
#X obj 147 190 print RECV;
#X obj 10 158 route x;
#X obj 143 162 print Route1;
#X obj 9 309 oscformat /modified/x;
#X obj 11 181 unpack s f;
#X symbolatom 10 209 22 0 0 0 - - -, f 22;
#X floatatom 107 228 5 0 0 0 - - -, f 5;
#X obj 10 134 route one;
#X obj 10 273 pack s f, f 7;
#X obj 108 249 * 1.3;
#X obj 193 370 vsl 200 260 0 164 0 0 empty empty empty 0 -9 0 10 -260097
-1 -1 13729 1;
#X text 173 249 Manipulate a message;
#X msg 29 493 connect 10.247.26.116 9997;
#X obj 35 531 netsend -u -b;
#X connect 0 0 7 0;
#X connect 1 0 0 0;
#X connect 1 0 23 0;
#X connect 2 0 4 0;
#X connect 3 0 2 0;
#X connect 4 0 5 0;
#X connect 5 0 6 0;
#X connect 6 0 11 0;
#X connect 6 0 18 0;
#X connect 8 0 9 0;
#X connect 9 0 7 0;
#X connect 9 0 24 0;
#X connect 10 0 2 0;
#X connect 10 0 0 0;
#X connect 12 0 15 0;
#X connect 14 0 8 0;
#X connect 15 0 16 0;
#X connect 15 1 17 0;
#X connect 16 0 19 0;
#X connect 17 0 20 0;
#X connect 18 0 12 0;
#X connect 18 0 13 0;
#X connect 19 0 14 0;
#X connect 20 0 19 1;
#X connect 20 0 21 0;
#X connect 23 0 24 0;
