#N canvas 699 132 1136 870 10;
#N canvas 489 604 450 300 VCO 0;
#X obj 129 76 phasor~;
#X obj 130 184 *~ -1;
#X obj 130 131 -~ 0.5;
#X obj 129 29 inlet~;
#X obj 130 247 outlet~;
#X obj 130 212 *~;
#X obj 183 28 inlet~;
#X connect 0 0 2 0;
#X connect 1 0 5 0;
#X connect 2 0 1 0;
#X connect 3 0 0 0;
#X connect 5 0 4 0;
#X connect 6 0 5 1;
#X restore 453 457 pd VCO;
#N canvas 1213 584 450 300 VCF 0;
#X obj 78 43 inlet~;
#X obj 76 117 outlet~;
#X obj 147 44 inlet;
#X obj 77 82 lop~;
#X connect 0 0 3 0;
#X connect 2 0 3 1;
#X connect 3 0 1 0;
#X restore 454 540 pd VCF;
#X obj 532 26 loadbang;
#X obj 532 4 bng 15 250 50 0 empty empty empty 17 7 0 10 -262144 -1
-1;
#N canvas 1311 538 450 300 LFO 0;
#X obj 51 25 inlet;
#X obj 110 28 inlet;
#X obj 51 223 *~;
#X obj 162 30 inlet;
#X obj 51 142 triangle~;
#X obj 51 75 sig~;
#X obj 52 112 phasor~;
#X obj 101 76 sig~ 0.5;
#X obj 166 170 blosc~ comparator;
#X obj 166 142 -~ 0.5;
#X obj 186 66 - 1;
#X obj 132 205 *~;
#X obj 56 187 *~;
#X obj 52 261 outlet~;
#X connect 0 0 5 0;
#X connect 1 0 2 1;
#X connect 2 0 13 0;
#X connect 3 0 10 0;
#X connect 3 0 12 1;
#X connect 4 0 12 0;
#X connect 5 0 6 0;
#X connect 6 0 4 0;
#X connect 6 0 9 0;
#X connect 7 0 4 1;
#X connect 8 0 11 0;
#X connect 9 0 8 0;
#X connect 10 0 11 1;
#X connect 11 0 2 0;
#X connect 12 0 2 0;
#X restore 454 389 pd LFO;
#X obj 454 423 +~;
#X obj 543 66 0;
#X floatatom 623 339 5 0 0 0 - - -;
#X floatatom 623 367 5 0 0 0 - - -;
#X floatatom 619 396 5 0 0 0 - - -;
#X floatatom 615 427 5 0 0 0 - - -;
#X floatatom 610 527 5 0 0 0 - - -;
#X floatatom 551 585 5 0 0 0 - - -;
#X floatatom 600 589 5 0 0 0 - - -;
#X obj 161 139 hsl 128 15 0 1440 0 0 empty empty Pitch -2 -8 0 10 -262144
-1 -1 2300 0;
#X obj 161 169 hsl 128 15 0.01 1440 1 0 empty empty LFO_Rate -2 -8
0 10 -262144 -1 -1 0 0;
#X obj 160 203 hsl 128 15 0.01 300 1 0 empty empty Intensity -2 -8
0 10 -262144 -1 -1 0 1;
#X obj 159 235 hsl 128 15 0 1 0 0 empty empty Switch -2 -8 0 10 -262144
-1 -1 0 1;
#X obj 158 266 hsl 128 15 20 1440 1 0 empty empty cutoff -2 -8 0 10
-262144 -1 -1 4600 1;
#X obj 774 68 1;
#X obj 158 302 hsl 128 15 0 4000 0 0 empty empty time -2 -8 0 10 -262144
-1 -1 200 0;
#X obj 159 337 hsl 128 15 0 1.2 0 0 empty empty feedback -2 -8 0 10
-262144 -1 -1 7700 0;
#X obj 457 639 clip~ -1.1 1.1;
#X obj 456 616 *~;
#X obj 159 369 hsl 128 15 0 2 0 0 empty empty volume -2 -8 0 10 -262144
-1 -1 1600 1;
#X msg 534 202 1 100;
#X msg 583 235 0 1000;
#X obj 524 260 line~;
#X obj 584 190 delay 1000;
#X obj 544 169 bng 15 250 50 0 empty empty empty 17 7 0 10 -262144
-1 -1;
#X obj 712 548 cnv 15 100 60 empty empty empty 20 12 0 14 -233017 -66577
0;
#X obj 457 682 outlet~;
#X obj 492 143 t b;
#X obj 287 -141 inlet;
#X obj 289 -118 inlet;
#X obj 293 -93 inlet;
#X obj 298 -71 inlet;
#X obj 302 -48 inlet;
#X obj 309 -5 inlet;
#X obj 317 35 inlet;
#X text 176 110 ~Korg Monotron delay;
#N canvas 1347 673 450 300 DELAY 0;
#X obj 79 47 inlet~;
#X obj 122 47 inlet;
#X obj 160 47 inlet;
#X obj 95 261 outlet~;
#X obj 95 199 +~;
#X obj 95 168 *~;
#X obj 160 78 sig~ 0;
#X obj 95 137 delread~ \$0-DELAY 0;
#X obj 95 230 delwrite~ \$0-DELAY 4000;
#X connect 0 0 4 0;
#X connect 1 0 7 0;
#X connect 2 0 6 0;
#X connect 4 0 3 0;
#X connect 4 0 8 0;
#X connect 5 0 4 1;
#X connect 6 0 5 1;
#X connect 7 0 5 0;
#X restore 455 587 pd DELAY;
#X obj 353 -136 s \$0-pitch;
#X obj 353 -106 s \$0-rate;
#X obj 350 -72 s \$0-intensity;
#X obj 359 -40 s \$0-switch;
#X obj 361 -10 s \$0-cutoff;
#X obj 360 27 s \$0-time;
#X obj 361 62 s \$0-feedback;
#X obj 361 94 s \$0-volume;
#X obj 302 154 s \$0-pitch;
#X obj 302 184 s \$0-rate;
#X obj 300 218 s \$0-intensity;
#X obj 308 250 s \$0-switch;
#X obj 309 281 s \$0-cutoff;
#X obj 309 317 s \$0-time;
#X obj 310 352 s \$0-feedback;
#X obj 310 384 s \$0-volume;
#X obj 532 93 s \$0-time 0;
#X obj 529 124 s \$0-pitch 0;
#X obj 603 96 s \$0-feedback 0;
#X obj 599 123 s \$0-switch 0;
#X obj 691 94 s \$0-rate 0;
#X obj 686 122 s \$0-cutoff 0;
#X obj 772 92 s \$0-enable;
#X obj 775 120 s \$0-volume;
#X obj 454 357 r \$0-rate;
#X obj 525 329 r \$0-switch;
#X obj 504 356 r \$0-intensity;
#X obj 501 389 r \$0-pitch;
#X obj 496 507 r \$0-cutoff;
#X obj 523 549 r \$0-time;
#X obj 572 549 r \$0-feedback;
#X obj 510 600 r \$0-volume;
#X obj 160 401 hsl 128 15 1 40000 1 0 empty empty sustain -2 -8 0 10
-262144 -1 -1 0 1;
#X obj 315 418 s \$0-sustain;
#X obj 884 71 1000;
#X obj 877 116 s \$0-sustain;
#X obj 684 152 r \$0-sustain;
#X obj 359 118 s \$0-sustain;
#X obj 319 62 inlet;
#X obj 325 95 inlet;
#X connect 0 0 1 0;
#X connect 1 0 41 0;
#X connect 2 0 6 0;
#X connect 2 0 19 0;
#X connect 2 0 76 0;
#X connect 3 0 2 0;
#X connect 4 0 5 0;
#X connect 5 0 0 0;
#X connect 6 0 58 0;
#X connect 6 0 59 0;
#X connect 6 0 60 0;
#X connect 6 0 61 0;
#X connect 6 0 62 0;
#X connect 6 0 63 0;
#X connect 14 0 50 0;
#X connect 15 0 51 0;
#X connect 16 0 52 0;
#X connect 17 0 53 0;
#X connect 18 0 54 0;
#X connect 19 0 64 0;
#X connect 19 0 65 0;
#X connect 20 0 55 0;
#X connect 21 0 56 0;
#X connect 22 0 31 0;
#X connect 23 0 22 0;
#X connect 24 0 57 0;
#X connect 25 0 27 0;
#X connect 26 0 27 0;
#X connect 27 0 0 1;
#X connect 28 0 26 0;
#X connect 29 0 25 0;
#X connect 29 0 28 0;
#X connect 32 0 29 0;
#X connect 33 0 42 0;
#X connect 34 0 43 0;
#X connect 35 0 44 0;
#X connect 36 0 45 0;
#X connect 37 0 46 0;
#X connect 38 0 47 0;
#X connect 39 0 48 0;
#X connect 41 0 23 0;
#X connect 66 0 4 0;
#X connect 66 0 8 0;
#X connect 67 0 4 2;
#X connect 67 0 7 0;
#X connect 68 0 4 1;
#X connect 68 0 9 0;
#X connect 69 0 5 1;
#X connect 69 0 10 0;
#X connect 69 0 32 0;
#X connect 70 0 1 1;
#X connect 70 0 11 0;
#X connect 71 0 41 1;
#X connect 71 0 12 0;
#X connect 72 0 41 2;
#X connect 72 0 13 0;
#X connect 73 0 23 1;
#X connect 74 0 75 0;
#X connect 76 0 77 0;
#X connect 78 0 28 1;
#X connect 80 0 49 0;
#X connect 81 0 79 0;
#X coords 0 -1 1 1 200 330 1 100 100;
