#N canvas 818 58 547 708 10;
#X obj 151 412 dac~;
#X floatatom 133 -30 5 0 0 0 - - -, f 5;
#X floatatom 185 -30 5 0 0 0 - - -, f 5;
#X obj 133 -56 t f b;
#X obj 185 -56 t f b;
#X obj 101 -3 *;
#X obj 185 4 *;
#X obj 112 -155 vsl 15 128 20 4400 0 0 empty empty empty 0 -9 0 10
-262144 -1 -1 6600 1;
#X obj 255 -150 vsl 15 128 20 1760 1 0 empty empty empty 0 -9 0 10
-262144 -1 -1 1500 1;
#X obj 138 -206 vsl 15 128 0 1 0 0 empty empty empty 0 -9 0 10 -262144
-1 -1 8200 1;
#X obj 193 -217 vsl 15 128 0 1 0 0 empty empty empty 0 -9 0 10 -262144
-1 -1 9700 1;
#X obj 62 50 polytron;
#X obj 277 50 polytron;
#X obj 68 -158 vsl 15 128 0 1 0 0 empty empty empty 0 -9 0 10 -262144
-1 -1 6400 1;
#X obj 327 -196 loadbang;
#X obj 326 -5 route one modified;
#X obj 327 23 route x;
#X obj 397 22 route x;
#X obj 336 -223 bng 15 250 50 0 empty empty empty 17 7 0 10 -262144
-1 -1;
#X obj 327 -134 netreceive -u -b;
#X obj 326 -101 oscparse;
#X obj 326 -68 list trim;
#X obj 342 -36 print polytron;
#X msg 327 -164 listen 59120;
#X text 272 397 HACKING NIMES;
#X connect 1 0 5 0;
#X connect 2 0 6 0;
#X connect 3 0 1 0;
#X connect 4 0 2 0;
#X connect 5 0 11 0;
#X connect 6 0 12 0;
#X connect 7 0 5 1;
#X connect 8 0 6 1;
#X connect 9 0 3 0;
#X connect 10 0 4 0;
#X connect 11 0 0 0;
#X connect 11 0 0 1;
#X connect 12 0 0 1;
#X connect 13 0 5 0;
#X connect 14 0 23 0;
#X connect 15 0 16 0;
#X connect 15 1 17 0;
#X connect 16 0 3 0;
#X connect 17 0 4 0;
#X connect 18 0 23 0;
#X connect 19 0 20 0;
#X connect 20 0 21 0;
#X connect 21 0 15 0;
#X connect 21 0 22 0;
#X connect 23 0 19 0;
